<svg id="Layer_1" data-name="Layer 1" xmlns="http://www.w3.org/2000/svg" viewBox="0 0 97.27 76"><defs><style>.cls-1{fill:#46d281;}.cls-2{fill:none;stroke:#231f20;stroke-miterlimit:10;stroke-width:2px;}</style></defs><path class="cls-1" d="M90.89,27.81a8.54,8.54,0,0,1-8.55-8.54V14.41H71.7s-4.58-12.7-7.65-12.7H33.23C33,1.71,30.64,2,29,4.87c-2.12,3.63-3.65,10-3.65,10H22s-14.15-3.52-20.1,6A10.12,10.12,0,0,0,1,24.92V64.38a10,10,0,0,0,10.05,10H86.23a10,10,0,0,0,4.07-.87c.56-1.25,5.5-5.27,5.5-6.72l.94-39Zm-79.34.47a3.17,3.17,0,1,1,3.17-3.17A3.17,3.17,0,0,1,11.55,28.28Zm29-19.92H57.18a3,3,0,0,1,0,6H40.56a3,3,0,0,1,0-6Zm8.08,59A23.25,23.25,0,1,1,71.88,44.07,23.25,23.25,0,0,1,48.64,67.32Z"/><path class="cls-2" d="M72,14.88,69.06,6.43a7.19,7.19,0,0,0-6.8-4.85H35a7.17,7.17,0,0,0-6.79,4.85l-2.9,8.45H11.05a10,10,0,0,0-10,10V64.38a10,10,0,0,0,10.05,10H86.23a10,10,0,0,0,10-10V24.92a10,10,0,0,0-10-10Z"/><circle class="cls-2" cx="48.64" cy="44.07" r="23.24"/><path class="cls-2" d="M81.88,15.6v4.13a8.54,8.54,0,0,0,8.54,8.55h5.85"/><circle class="cls-2" cx="48.64" cy="44.07" r="15.27"/><path class="cls-2" d="M10.16,14.35V11a3.17,3.17,0,0,1,3-3.32h5.57a3.16,3.16,0,0,1,3,3.32v3.31"/><rect class="cls-2" x="37.57" y="8.36" width="22.6" height="5.99" rx="2.99"/><circle class="cls-2" cx="11.55" cy="25.11" r="3.17"/></svg>