<svg id="Layer_1" data-name="Layer 1" xmlns="http://www.w3.org/2000/svg" viewBox="0 0 141.03 76"><defs><style>.cls-1{fill:#46d281;}.cls-2{fill:#fff;}.cls-2,.cls-3,.cls-4{stroke:#221f1f;stroke-linejoin:round;stroke-width:2px;}.cls-3,.cls-4{fill:none;}.cls-4{stroke-linecap:round;}</style></defs><path class="cls-1" d="M9.15,62.61h0a7.94,7.94,0,0,1-7.77-9.53l4.7-22.85a2.57,2.57,0,0,1,2.47-1.86H117.64a21.81,21.81,0,0,1,21.81,21.81v3.41a9,9,0,0,1-9,9h-6.88"/><circle class="cls-2" cx="107.76" cy="58.29" r="16.51"/><line class="cls-3" x1="90.84" y1="62.61" x2="41.77" y2="62.61"/><path class="cls-3" d="M5.93,31,14.22,13.4A20.79,20.79,0,0,1,32.87,1.48l16.47-.11A103.25,103.25,0,0,1,105,17.21l19.8,12.42"/><path class="cls-4" d="M19.22,15.54A15.81,15.81,0,0,1,33.4,6.48"/><line class="cls-3" x1="57.2" y1="1.07" x2="57.2" y2="61.45"/><circle class="cls-2" cx="28.57" cy="58.29" r="16.51"/><circle class="cls-3" cx="28.57" cy="58.29" r="6.98"/><circle class="cls-3" cx="107.76" cy="58.29" r="6.98"/><line class="cls-4" x1="65.03" y1="41.35" x2="68.3" y2="41.35"/><path class="cls-4" d="M107.76,45.82A12.46,12.46,0,0,1,117.11,50"/><path class="cls-2" d="M136.92,40.18H126.79a4.42,4.42,0,0,1-4.41-4.4h0a4.42,4.42,0,0,1,4.41-4.41h1.9"/><line class="cls-3" x1="139.45" y1="53.59" x2="124.27" y2="53.59"/><line class="cls-4" x1="84.38" y1="53.59" x2="44.77" y2="53.59"/><line class="cls-3" x1="12.74" y1="53.59" x2="1.38" y2="53.59"/><path class="cls-2" d="M4.42,40.18H5.54a4.21,4.21,0,0,1,4.2,4.2h0a4.21,4.21,0,0,1-4.2,4.21H2.33"/><path class="cls-3" d="M12.74,62.61H9.15a7.94,7.94,0,0,1-7.77-9.53l4.7-22.85a2.57,2.57,0,0,1,2.47-1.86H117.64a21.81,21.81,0,0,1,21.81,21.81v3.41a9,9,0,0,1-9,9h-6.88"/></svg>