<svg id="Layer_1" data-name="Layer 1" xmlns="http://www.w3.org/2000/svg" viewBox="0 0 221.83 76"><defs><style>.cls-1{fill:#46d281;}.cls-2{fill:#231f20;}.cls-3{fill:#fff;}</style></defs><path class="cls-1" d="M30,4.12a4,4,0,0,0-3.86-2.85H10.94A4,4,0,0,0,7.08,4.12L1.75,21.43A2.68,2.68,0,0,0,4.32,24.9H32.73a2.68,2.68,0,0,0,2.57-3.47Z"/><path class="cls-1" d="M63.49,1.62S58.73,8,57,10.25s-2,11.85-2,11.85l5.34-.29a12.13,12.13,0,0,0,3-3.88c.69-1.9-.77-6.88-1-9.36s2.05-7.28,2.05-7.28Z"/><polygon class="cls-1" points="48.87 16.42 43.49 11.04 43.26 14.83 44.24 19 45.91 22.18 50.76 25.67 53.71 26.42 52.73 22.71 48.87 16.42"/><path class="cls-1" d="M187.48,28.84a2.12,2.12,0,0,0-2.67,1.36l-6.62,20.61c-.36,1.11.14,1.19,1.25,1.55l11.21,3.53L201.5,57l.17-3.67c.16-3.37-.54-8.73,2.19-10.71l3.18-.83.83-5.54Z"/><path class="cls-2" d="M32.73,25.92H4.32A3.7,3.7,0,0,1,.78,21.13L6.11,3.82A5,5,0,0,1,10.94.25H26.11A5,5,0,0,1,31,3.82l5.32,17.31a3.7,3.7,0,0,1-3.54,4.79ZM10.94,2.29A3,3,0,0,0,8.06,4.42L2.73,21.73A1.63,1.63,0,0,0,3,23.21a1.66,1.66,0,0,0,1.34.68H32.73a1.64,1.64,0,0,0,1.34-.68,1.67,1.67,0,0,0,.26-1.48L29,4.42a3,3,0,0,0-2.89-2.13Z"/><path class="cls-2" d="M18.53,75.88a1,1,0,0,1-1-1V25.71a1,1,0,0,1,2,0V74.86A1,1,0,0,1,18.53,75.88Z"/><path class="cls-2" d="M27.18,76.07H9.88a1,1,0,1,1,0-2h17.3a1,1,0,1,1,0,2Z"/><path class="cls-2" d="M23,28.54a1,1,0,0,1-1-1V25.74a1,1,0,1,1,2,0v1.78A1,1,0,0,1,23,28.54Z"/><line class="cls-3" x1="11.22" y1="5.87" x2="8.34" y2="18.26"/><path class="cls-2" d="M8.34,19.28a1,1,0,0,1-.24,0A1,1,0,0,1,7.34,18l2.89-12.4a1,1,0,0,1,2,.47L9.33,18.5A1,1,0,0,1,8.34,19.28Z"/><path class="cls-2" d="M211.24,39.75h0v-11a6.52,6.52,0,0,0-6.52-6.51H164.91a6.52,6.52,0,0,0-6.52,6.51v11c-.28,0-.55,0-.83,0h-.5a10,10,0,0,0-9.95,9.94v20.8A5.88,5.88,0,0,0,153,76.36h8.63a5.88,5.88,0,0,0,5.85-5.3h33.36a5.88,5.88,0,0,0,5.84,5.3h8.64a5.87,5.87,0,0,0,5.87-5.87V49.69A10,10,0,0,0,211.24,39.75Zm-2.53.21.37-1.12c0-.14.06-.27.09-.41v1.45C209,39.91,208.86,39.92,208.71,40ZM165.46,70.49a3.84,3.84,0,0,1-3.84,3.83H153a3.84,3.84,0,0,1-3.84-3.83V49.69a7.91,7.91,0,0,1,7.91-7.9h.5a7.91,7.91,0,0,1,7.9,7.9Zm-5-30.32V28.79a4.48,4.48,0,0,1,4.48-4.47h39.78a4.48,4.48,0,0,1,4.48,4.47v7.93a3.9,3.9,0,0,0-.33-1,4.06,4.06,0,0,0-2.34-2l-19-6.13a3.14,3.14,0,0,0-3.95,2l-6.36,19.61a3.1,3.1,0,0,0,2,3.94l5.88,1.92H167.5V49.69A10,10,0,0,0,160.43,40.17Zm7.07,17h33.3V69H167.5Zm33.3-7.46v5.06H190.64l-10.77-3.49a1.11,1.11,0,0,1-.71-1.38l6.37-19.61a1.1,1.1,0,0,1,1.38-.71l19,6.13a2,2,0,0,1,1.16,1,1.94,1.94,0,0,1,.11,1.51l-.85,2.61A10,10,0,0,0,200.8,49.69Zm18.34,20.8a3.84,3.84,0,0,1-3.83,3.83h-8.64a3.84,3.84,0,0,1-3.83-3.83V49.69a7.9,7.9,0,0,1,7.9-7.9h.5a7.9,7.9,0,0,1,7.9,7.9Z"/><path class="cls-2" d="M114.13,7.81a1,1,0,1,0-1.24,1.62l8.79,6.75a1,1,0,0,0,.62.21,1,1,0,0,0,.81-.4,1,1,0,0,0-.19-1.43Z"/><path class="cls-2" d="M126.74,17.62a1,1,0,0,0-1.43.19,1,1,0,0,0,.19,1.42l2.57,2a1,1,0,0,0,.62.21,1,1,0,0,0,.81-.4,1,1,0,0,0-.19-1.43Z"/><path class="cls-2" d="M140.38,61.83V50.47a2.84,2.84,0,0,0-2.84-2.83H116.79a3,3,0,0,0-3-2.93h-3v-.85h25a4.58,4.58,0,0,0,4.58-4.58V4.81A4.59,4.59,0,0,0,135.8.23H79.08A4.59,4.59,0,0,0,74.5,4.81V39.28a4.59,4.59,0,0,0,4.58,4.58h25v.85h-3a3,3,0,0,0-3,2.93H63.94a4,4,0,0,0,.85-1.5L68.7,33.45a3,3,0,0,0-2.86-3.86H56.55a58.28,58.28,0,0,1-.43-6.25c1.91,0,7.57-.54,8.12-5.29a15.45,15.45,0,0,0-.48-5.59,10.45,10.45,0,0,1-.11-6l1.59-4.84a1,1,0,0,0,.1-.53,1,1,0,0,0-1.12-.9c-.48,0-4.81.82-8.54,11.65a35,35,0,0,0-1.6,11.68c-.23-.6-.46-1.2-.72-1.8A32.61,32.61,0,0,0,43.94,9.54a1,1,0,0,0-1-.12,1,1,0,0,0-.62.77c0,.27-1.1,6.66,2.05,11.33a17.23,17.23,0,0,0,8.91,6.29c.15.6.27,1.19.37,1.78H45a3,3,0,0,0-2.85,3.86l3.9,12.69a4.14,4.14,0,0,0,.86,1.5h-4.2a2.83,2.83,0,0,0-2.83,2.83V73.24a2.83,2.83,0,0,0,2.83,2.83h94.81a2.84,2.84,0,0,0,2.84-2.83V62.68a1,1,0,0,0,0-.85ZM46.07,20.38a14,14,0,0,1-1.89-8,31.75,31.75,0,0,1,7.31,10.17c.42.94.78,1.87,1.09,2.8A14.77,14.77,0,0,1,46.07,20.38ZM62.45,3.64,61.7,5.91a12.6,12.6,0,0,0,.07,7,13.46,13.46,0,0,1,.45,4.9c-.36,3.05-4.55,3.45-6.07,3.49a30.26,30.26,0,0,1,1.46-8.74C59.33,7.54,61.12,5,62.45,3.64ZM45.23,36.45H59.78a1,1,0,1,0,0-2H44.6l-.48-1.57a.95.95,0,0,1,.9-1.23H65.84a1,1,0,0,1,.77.39.93.93,0,0,1,.14.84l-3.9,12.69A1.93,1.93,0,0,1,61,46.91H49.87A1.93,1.93,0,0,1,48,45.54Zm63.49,7.41v.85h-2.56v-.85ZM76.54,39.28V4.81a2.54,2.54,0,0,1,2.54-2.54H135.8a2.54,2.54,0,0,1,2.54,2.54V39.28a2.54,2.54,0,0,1-2.54,2.54H79.08A2.54,2.54,0,0,1,76.54,39.28Zm24.59,7.47h12.62a1,1,0,0,1,1,.89h-14.6A1,1,0,0,1,101.13,46.75Zm-58.4,2.92h94.81a.8.8,0,0,1,.8.8V61.24H42.24a.94.94,0,0,0-.3.06V50.47A.79.79,0,0,1,42.73,49.67ZM137.54,74H42.73a.79.79,0,0,1-.79-.8v-10a.94.94,0,0,0,.3.06h96.1v10A.8.8,0,0,1,137.54,74Z"/><path class="cls-2" d="M88.22,56.88h5.26a1,1,0,0,0,0-2H88.22a1,1,0,1,0,0,2Z"/><path class="cls-2" d="M93.48,67.39H88.22a1,1,0,1,0,0,2h5.26a1,1,0,1,0,0-2Z"/></svg>