<svg id="Layer_1" data-name="Layer 1" xmlns="http://www.w3.org/2000/svg" viewBox="0 0 42.32 76"><defs><style>.cls-1{fill:#46d281;}.cls-2{fill:#231f20;}</style></defs><path class="cls-1" d="M34,1.22H8.17A7,7,0,0,0,1.26,7.36H40.92A7,7,0,0,0,34,1.22Z"/><path class="cls-1" d="M1.21,62.42v5.35a7,7,0,0,0,7,7H34a7,7,0,0,0,7-7V62.42Z"/><path class="cls-2" d="M21.09,71.72A3.12,3.12,0,1,0,18,68.6,3.12,3.12,0,0,0,21.09,71.72Z"/><path class="cls-2" d="M34,.21H8.17a8,8,0,0,0-8,8V67.77a8,8,0,0,0,8,8H34a8,8,0,0,0,8-8V8.18A8,8,0,0,0,34,.21Zm-25.84,2H34A6,6,0,0,1,39.8,6.82H2.39A6,6,0,0,1,8.17,2.23ZM40,67.77a6,6,0,0,1-6,5.94H8.17a6,6,0,0,1-5.95-5.94V63.5H40Zm0-6.3H2.22V8.84H40Z"/></svg>